<svg width="22" height="29" viewBox="0 0 22 29" fill="none" xmlns="http://www.w3.org/2000/svg">
<g clip-path="url(#clip0_21_2)">
<path d="M6.91932 22.4183C6.91932 22.4183 5.81313 23.0615 7.70659 23.2792C10.0005 23.5409 11.1728 23.5034 13.7008 23.0249C13.7008 23.0249 14.3654 23.4416 15.2935 23.8026C9.62671 26.2313 2.46824 23.6619 6.91932 22.4183V22.4183ZM6.22684 19.2489C6.22684 19.2489 4.98612 20.1673 6.88101 20.3633C9.33143 20.6161 11.2665 20.6368 14.6151 19.992C14.6151 19.992 15.0783 20.4615 15.8066 20.7183C8.95493 22.7218 1.32349 20.8763 6.22684 19.2489" fill="#5382A1"/>
<path d="M12.0645 13.8726C13.4609 15.4802 11.6977 16.9269 11.6977 16.9269C11.6977 16.9269 15.2431 15.0966 13.6149 12.8046C12.0941 10.6673 10.9278 9.6052 17.2414 5.94366C17.2414 5.94366 7.33126 8.41871 12.0645 13.8726" fill="#E76F00"/>
<path d="M19.5594 24.7625C19.5594 24.7625 20.3781 25.4369 18.6578 25.9588C15.3869 26.9497 5.04359 27.2489 2.17024 25.9982C1.13739 25.549 3.07436 24.9254 3.68361 24.7945C4.31901 24.6567 4.68218 24.6824 4.68218 24.6824C3.53349 23.8732 -2.74241 26.2713 1.49436 26.958C13.0485 28.8318 22.5564 26.1143 19.5594 24.7625ZM7.45118 15.9651C7.45118 15.9651 2.19002 17.2148 5.58814 17.6685C7.02288 17.8606 9.88307 17.8172 12.5473 17.5939C14.7246 17.4103 16.911 17.0197 16.911 17.0197C16.911 17.0197 16.1432 17.3485 15.5878 17.7278C10.2451 19.133 -0.0760845 18.4793 2.89524 17.0419C5.4081 15.8273 7.45126 15.9651 7.45126 15.9651H7.45118ZM16.8893 21.2406C22.3205 18.4184 19.8093 15.7063 18.0565 16.0717C17.6269 16.1611 17.4354 16.2385 17.4354 16.2385C17.4354 16.2385 17.5949 15.9887 17.8995 15.8806C21.3669 14.6615 24.0337 19.476 16.7801 21.3828C16.7801 21.3829 16.8642 21.3078 16.8893 21.2406Z" fill="#5382A1"/>
<path d="M13.6148 0.0310973C13.6148 0.0310973 16.6227 3.04006 10.762 7.66673C6.06243 11.3782 9.69036 13.4944 10.7601 15.9122C8.01683 13.4371 6.00359 11.2583 7.35427 9.23047C9.33658 6.25361 14.8284 4.8104 13.6148 0.0310135" fill="#E76F00"/>
<path d="M7.98494 28.8881C13.1981 29.2219 21.2036 28.703 21.3932 26.2362C21.3932 26.2362 21.0287 27.1714 17.0847 27.914C12.6352 28.7513 7.14729 28.6536 3.89233 28.1169C3.89242 28.1169 4.55866 28.6684 7.98502 28.8881" fill="#5382A1"/>
</g>
<defs>
<clipPath id="clip0_21_2">
<rect width="21.4566" height="29" fill="white"/>
</clipPath>
</defs>
</svg>
