<svg width="28" height="28" viewBox="0 0 28 28" fill="none" xmlns="http://www.w3.org/2000/svg">
<path d="M27.8915 16.7667C27.7236 16.2736 27.2838 15.9302 26.715 15.8478C26.4468 15.809 26.1397 15.8255 25.7762 15.8982C25.1427 16.0249 24.6728 16.0732 24.3298 16.0825C25.6244 13.9629 26.6772 11.5458 27.2832 9.27044C28.2632 5.5913 27.7395 3.91522 27.1276 3.1571C25.5081 1.15043 23.1452 0.072434 20.2947 0.0394491C18.7741 0.0214188 17.4391 0.312555 16.7428 0.521919C16.0944 0.410979 15.3972 0.34904 14.6657 0.337586C13.2945 0.316373 12.0829 0.606237 11.0477 1.20198C10.4746 1.01404 9.55474 0.749101 8.49249 0.58004C5.99415 0.182313 3.98055 0.492222 2.50771 1.50118C0.72424 2.72278 -0.102525 4.84527 0.0503807 7.80966C0.0989432 8.75084 0.641881 11.6145 1.49676 14.3303C1.98807 15.8913 2.51197 17.1875 3.05393 18.1835C3.8225 19.5956 4.6449 20.4273 5.56813 20.7259C6.08558 20.8931 7.02577 21.0102 8.01463 20.2115C8.13997 20.3588 8.30721 20.505 8.52913 20.6409C8.81099 20.8132 9.15563 20.9541 9.49983 21.0375C10.7403 21.3382 11.9021 21.263 12.8934 20.8415C12.8995 21.0125 12.9042 21.1758 12.9082 21.3169C12.9147 21.5457 12.9213 21.77 12.9299 21.9798C12.9887 23.3982 13.0882 24.5012 13.3831 25.2729C13.3993 25.3153 13.421 25.38 13.444 25.4486C13.5911 25.8854 13.8371 26.6165 14.4629 27.1892C15.111 27.7824 15.8949 27.9643 16.6128 27.9643C16.9729 27.9643 17.3164 27.9184 17.6178 27.8559C18.6918 27.6326 19.9117 27.2926 20.7941 26.0742C21.6284 24.9223 22.034 23.1875 22.1074 20.454C22.1169 20.3767 22.1256 20.3029 22.1341 20.2325L22.1516 20.0881L22.3481 20.1048L22.3987 20.1081C23.4927 20.1565 24.8304 19.9315 25.6519 19.5615C26.301 19.2694 28.3812 18.2045 27.8915 16.7667Z" fill="black"/>
<path d="M26.0209 17.0463C22.7681 17.6969 22.5444 16.629 22.5444 16.629C25.9788 11.6873 27.4146 5.4146 26.1757 3.87937C22.7955 -0.308431 16.9445 1.67214 16.8469 1.72348L16.8155 1.72899C16.1728 1.5996 15.4536 1.5226 14.6452 1.50977C13.1735 1.48643 12.057 1.88395 11.2098 2.50695C11.2098 2.50695 0.772123 -1.66272 1.25764 7.75101C1.36089 9.75364 4.21776 22.9042 7.62523 18.9321C8.87068 17.4796 10.0741 16.2516 10.0741 16.2516C10.6718 16.6366 11.3873 16.833 12.1374 16.7624L12.1957 16.7145C12.1775 16.8948 12.1858 17.0712 12.219 17.28C11.3411 18.2311 11.5992 18.398 9.84434 18.7483C8.06864 19.1032 9.11175 19.7349 9.79282 19.9001C10.6185 20.1003 12.5286 20.3839 13.8192 18.6319L13.7678 18.8318C14.1117 19.099 14.3532 20.5694 14.3127 21.9025C14.2723 23.2354 14.2453 24.1506 14.5162 24.8655C14.7873 25.5803 15.0574 27.1887 17.3643 26.7094C19.2918 26.3089 20.2907 25.2708 20.4298 23.5393C20.5283 22.3084 20.7515 22.4904 20.7655 21.3898L20.9446 20.8688C21.151 19.2001 20.9774 18.6618 22.1649 18.9122L22.4536 18.9368C23.3275 18.9753 24.4716 18.8004 25.1431 18.4978C26.5888 17.8472 27.4463 16.7609 26.0207 17.0463H26.0209Z" fill="#336791"/>
<path d="M11.8208 8.64659C11.5277 8.60703 11.2622 8.64362 11.1279 8.74226C11.0524 8.79773 11.029 8.862 11.0227 8.90623C11.0058 9.02342 11.0905 9.15303 11.1426 9.21985C11.2898 9.40906 11.5048 9.53909 11.7177 9.56773C11.7485 9.57197 11.7792 9.57388 11.8098 9.57388C12.1647 9.57388 12.4874 9.30586 12.5159 9.10806C12.5514 8.8603 12.1805 8.69517 11.8208 8.6467" fill="white"/>
<path d="M21.5316 8.65444C21.5036 8.46024 21.1472 8.40488 20.809 8.45049C20.4713 8.49609 20.1438 8.64394 20.1712 8.83856C20.193 8.98991 20.4749 9.24827 20.8085 9.24827C20.8367 9.24827 20.8651 9.24647 20.8938 9.24255C21.1165 9.21264 21.2799 9.0755 21.3575 8.99649C21.4757 8.876 21.5441 8.74173 21.5316 8.65444Z" fill="white"/>
<path d="M27.1033 16.9724C26.9793 16.6087 26.5801 16.4917 25.9168 16.6245C23.9475 17.0186 23.2423 16.7456 23.0107 16.5803C24.5414 14.319 25.8007 11.5856 26.48 9.03541C26.8018 7.82738 26.9795 6.70547 26.9941 5.79102C27.0101 4.78737 26.8338 4.04982 26.4703 3.59928C25.0044 1.78299 22.853 0.808715 20.2488 0.781988C18.4584 0.762473 16.9458 1.20676 16.6526 1.3317C16.035 1.18279 15.3618 1.09137 14.6289 1.0797C13.2849 1.05859 12.1231 1.37062 11.1613 2.00667C10.7435 1.85585 9.66371 1.49641 8.34323 1.29012C6.06035 0.93376 4.24626 1.20379 2.9517 2.09311C1.40699 3.15435 0.693868 5.05135 0.832009 7.73129C0.878493 8.63291 1.40831 11.4066 2.24437 14.0629C3.3449 17.5591 4.54124 19.5383 5.79993 19.9454C5.94726 19.9931 6.11712 20.0264 6.30448 20.0264C6.76363 20.0264 7.32659 19.8257 7.91229 19.1429C8.62668 18.3119 9.36567 17.501 10.1283 16.7113C10.6231 16.9689 11.1667 17.1127 11.7227 17.1271C11.7238 17.1412 11.7252 17.1553 11.7265 17.1693C11.6308 17.28 11.5371 17.3922 11.4454 17.5061C11.0602 17.9803 10.98 18.079 9.74006 18.3265C9.38732 18.3972 8.45052 18.5844 8.43674 19.2212C8.42187 19.9169 9.54416 20.2091 9.67202 20.2401C10.1176 20.3483 10.5469 20.4016 10.9563 20.4016C11.9519 20.4016 12.8281 20.0843 13.5284 19.4703C13.5068 21.9506 13.6135 24.3947 13.9206 25.1393C14.1721 25.749 14.7866 27.2388 16.7276 27.2387C17.0124 27.2387 17.3259 27.2066 17.6707 27.1349C19.6965 26.7138 20.5762 25.8456 20.9164 23.9315C21.0985 22.9086 21.411 20.4659 21.558 19.1556C21.8682 19.2495 22.2675 19.2924 22.6992 19.2923C23.5996 19.2923 24.6386 19.1068 25.2901 18.8136C26.0221 18.4839 27.3429 17.6751 27.1033 16.9724ZM22.2792 8.11841C22.2726 8.50522 22.2177 8.85638 22.1595 9.22293C22.0968 9.61716 22.0321 10.0247 22.0158 10.5195C21.9997 11.001 22.0617 11.5016 22.1216 11.9858C22.2428 12.9637 22.3672 13.9704 21.8858 14.9638C21.8059 14.8264 21.7346 14.6844 21.6725 14.5386C21.6127 14.3979 21.4828 14.172 21.3029 13.8594C20.603 12.6422 18.964 9.79195 19.803 8.62888C20.0529 8.2827 20.6872 7.92676 22.2792 8.11841ZM20.3494 1.56525C22.6828 1.6152 24.5286 2.46167 25.8355 4.081C26.8378 5.32308 25.7341 10.9747 22.5389 15.8504C22.5068 15.8108 22.4745 15.7713 22.442 15.732L22.4015 15.683C23.2272 14.3607 23.0658 13.0525 22.922 11.8926C22.863 11.4166 22.8072 10.967 22.8214 10.5447C22.8361 10.0971 22.8971 9.71314 22.9562 9.34193C23.0287 8.88449 23.1025 8.41114 23.0822 7.85316C23.0974 7.79461 23.1035 7.72546 23.0955 7.64337C23.0436 7.10829 22.4136 5.50688 21.1295 4.05746C20.4271 3.26466 19.4028 2.37746 18.0042 1.77906C18.6058 1.65815 19.4284 1.54541 20.3494 1.56525ZM7.29246 18.6431C6.64715 19.3955 6.20156 19.2513 6.05499 19.204C5.10015 18.8951 3.99218 16.9381 3.01535 13.8348C2.1701 11.1495 1.67617 8.44932 1.63701 7.69216C1.51363 5.29752 2.11224 3.62866 3.41632 2.73181C5.53863 1.27241 9.02792 2.14593 10.43 2.58894C10.4099 2.60825 10.3889 2.62628 10.369 2.6459C8.06815 4.89905 8.12273 8.74863 8.12841 8.98398C8.1282 9.07476 8.13607 9.20331 8.14679 9.38011C8.18638 10.0276 8.2601 11.2327 8.06323 12.5974C7.88035 13.8655 8.28351 15.1068 9.16912 16.0029C9.26001 16.0946 9.35553 16.182 9.45535 16.2646C9.06116 16.674 8.20443 17.5793 7.29246 18.6431ZM9.7511 15.4621C9.03732 14.7398 8.71313 13.7352 8.86156 12.7055C9.06937 11.264 8.9927 10.0084 8.95146 9.33387C8.94567 9.23948 8.94052 9.15675 8.93757 9.09152C9.27368 8.80251 10.8313 7.99326 11.9421 8.24007C12.4489 8.3526 12.7578 8.68732 12.8862 9.26302C13.5508 12.2436 12.9742 13.4859 12.5109 14.4843C12.4154 14.6899 12.3251 14.8843 12.2481 15.0854L12.1884 15.2409C12.0373 15.634 11.8966 15.9995 11.8094 16.3465C11.0506 16.3444 10.3124 16.03 9.7511 15.4619V15.4621ZM9.86759 19.4818C9.64599 19.4281 9.44671 19.3349 9.32979 19.2575C9.42746 19.213 9.60126 19.1523 9.9027 19.0921C11.3614 18.8009 11.5867 18.5954 12.0787 17.9897C12.1915 17.8508 12.3193 17.6934 12.4964 17.5016L12.4966 17.5014C12.7603 17.215 12.881 17.2636 13.0997 17.3516C13.277 17.4227 13.4497 17.6382 13.5197 17.8754C13.5529 17.9874 13.5901 18.1999 13.4683 18.3654C12.4406 19.7607 10.9431 19.7428 9.86759 19.4818ZM17.5019 26.3706C15.7173 26.7414 15.0854 25.8584 14.669 24.8491C14.4003 24.1974 14.2682 21.2589 14.3619 18.0138C14.3631 17.9706 14.3568 17.9289 14.3445 17.8897C14.3336 17.8122 14.3169 17.7356 14.2946 17.6604C14.1553 17.1882 13.8157 16.7932 13.4083 16.6295C13.2464 16.5644 12.9493 16.4451 12.5923 16.5337C12.6685 16.2295 12.8005 15.886 12.9436 15.514L13.0037 15.3576C13.0713 15.1812 13.1562 14.9985 13.2459 14.805C13.7307 13.7605 14.3947 12.3299 13.6741 9.09788C13.4041 7.88731 12.5026 7.29613 11.1361 7.43348C10.3169 7.51567 9.56735 7.83619 9.19351 8.01999C9.11312 8.05944 9.03962 8.09763 8.97093 8.13475C9.07527 6.91505 9.46946 4.6356 10.9441 3.19338C11.8725 2.2855 13.109 1.83708 14.6156 1.86126C17.584 1.90835 19.4876 3.38556 20.5618 4.61661C21.4876 5.67732 21.9889 6.74588 22.1889 7.32222C20.6844 7.17384 19.6612 7.46179 19.1426 8.18088C18.0142 9.74507 19.7599 12.7809 20.5989 14.24C20.7528 14.5074 20.8856 14.7385 20.9274 14.8367C21.2006 15.4788 21.5543 15.9075 21.8125 16.2204C21.8917 16.3163 21.9685 16.4093 22.0269 16.4905C21.5713 16.6179 20.7528 16.9122 20.8274 18.3834C20.7672 19.1216 20.3395 22.5777 20.1221 23.7987C19.8353 25.4119 19.2231 26.0128 17.5019 26.3707V26.3706ZM24.9507 18.1047C24.4848 18.3143 23.7051 18.4716 22.9644 18.5055C22.1462 18.5426 21.7297 18.4166 21.6317 18.3391C21.5858 17.4223 21.9377 17.3265 22.3101 17.2251C22.3686 17.2092 22.4257 17.1936 22.4808 17.1749C22.5151 17.202 22.5526 17.2288 22.5937 17.2551C23.2513 17.676 24.4241 17.7214 26.0799 17.3899L26.0981 17.3864C25.8747 17.5889 25.4926 17.8606 24.9507 18.1047Z" fill="white"/>
</svg>
