<svg width="30" height="28" viewBox="0 0 30 28" fill="none" xmlns="http://www.w3.org/2000/svg">
<g clip-path="url(#clip0_7_35)">
<path d="M24.666 8.78872C24.3467 8.67745 24.0247 8.57436 23.7004 8.47956C23.7548 8.25337 23.805 8.02992 23.8495 7.81039C24.5805 4.20551 24.1027 1.30134 22.4704 0.345155C20.9053 -0.571512 18.3458 0.384321 15.7609 2.66968C15.5061 2.89531 15.257 3.12745 15.0138 3.36587C14.851 3.20733 14.6853 3.05187 14.5168 2.89956C11.8077 0.455988 9.09223 -0.573893 7.46168 0.385036C5.89805 1.30456 5.43504 4.03468 6.09316 7.45111C6.15864 7.78947 6.23257 8.12608 6.31488 8.46063C5.93051 8.57158 5.55961 8.68968 5.20465 8.81539C2.0284 9.94039 0 11.7034 0 13.5321C0 15.4207 2.17758 17.3152 5.48578 18.4638C5.75398 18.5566 6.02442 18.6425 6.29684 18.7216C6.20836 19.0819 6.12982 19.4447 6.06129 19.8094C5.43387 23.1666 5.92383 25.8322 7.48324 26.7459C9.09387 27.6894 11.7971 26.7197 14.4293 24.3822C14.6427 24.1921 14.8515 23.9967 15.0553 23.7961C15.3187 24.0543 15.5891 24.3049 15.8663 24.5478C18.416 26.7766 20.9341 27.6766 22.492 26.7604C24.1011 25.8141 24.6241 22.9505 23.9452 19.4666C23.8917 19.1936 23.8317 18.9221 23.7653 18.6521C23.9551 18.5949 24.1414 18.5361 24.3231 18.4749C27.7623 17.3174 30 15.446 30 13.5321C30 11.6967 27.9061 9.92182 24.666 8.78872ZM23.9201 17.2392C23.756 17.2943 23.5877 17.3475 23.4162 17.3993C23.0365 16.1782 22.5241 14.8799 21.8971 13.5384C22.4954 12.2288 22.9881 10.9471 23.3571 9.73396C23.664 9.8242 23.9618 9.91932 24.2489 10.0197C27.0251 10.9906 28.7184 12.426 28.7184 13.5321C28.7184 14.7102 26.8896 16.2396 23.9201 17.2392ZM22.688 19.7194C22.9882 21.2599 23.031 22.6528 22.8321 23.7417C22.6535 24.7202 22.2942 25.3724 21.8498 25.6337C20.9045 26.1897 18.8827 25.4671 16.7021 23.5609C16.4444 23.3351 16.1928 23.102 15.9478 22.8621C16.7932 21.9229 17.638 20.8311 18.4625 19.6185C19.9129 19.4878 21.283 19.274 22.5255 18.9822C22.5867 19.233 22.6411 19.479 22.688 19.7194ZM10.2277 25.5377C9.30398 25.869 8.56828 25.8785 8.12355 25.618C7.17727 25.0636 6.78387 22.9232 7.32047 20.0523C7.38426 19.713 7.45729 19.3756 7.53949 19.0405C8.76832 19.3167 10.1285 19.5153 11.5822 19.635C12.4124 20.8216 13.2816 21.9122 14.1575 22.8672C13.9714 23.0502 13.7808 23.2285 13.586 23.4019C12.422 24.4355 11.2556 25.1688 10.2277 25.5377ZM5.90039 17.2319C4.43754 16.724 3.22945 16.0638 2.40141 15.3435C1.65727 14.6962 1.28168 14.0535 1.28168 13.5321C1.28168 12.4223 2.91023 11.0068 5.62652 10.0448C5.95617 9.92813 6.30117 9.81801 6.65918 9.71468C7.03465 10.9552 7.52707 12.2522 8.12133 13.5637C7.51934 14.8947 7.01988 16.2124 6.64078 17.4675C6.39212 17.3952 6.14525 17.3166 5.90039 17.2319ZM7.35094 7.20099C6.78715 4.27396 7.16156 2.06599 8.10387 1.51182C9.10746 0.921583 11.3268 1.76313 13.6659 3.87313C13.8185 4.01103 13.9685 4.15173 14.1161 4.29515C13.2444 5.24599 12.3832 6.32849 11.5604 7.50801C10.1495 7.64087 8.79891 7.8542 7.55719 8.14003C7.48068 7.82887 7.41191 7.51579 7.35094 7.20111V7.20099ZM20.2916 10.4472C19.9983 9.93252 19.6941 9.42435 19.3793 8.92301C20.3365 9.04599 21.2536 9.2092 22.1148 9.40872C21.8563 10.2506 21.534 11.1307 21.1547 12.0331C20.8774 11.4987 20.5897 10.9699 20.2916 10.4472ZM15.0144 5.22563C15.6055 5.87622 16.1975 6.60253 16.7798 7.39063C15.5986 7.33396 14.4154 7.33372 13.2341 7.38992C13.817 6.60908 14.4141 5.88373 15.0144 5.22563ZM9.70336 10.4561C9.40903 10.9747 9.12664 11.5001 8.85645 12.0321C8.48332 11.1329 8.16398 10.2487 7.90324 9.39491C8.75918 9.20039 9.67195 9.04134 10.623 8.92063C10.3047 9.42503 9.99805 9.93696 9.70336 10.456V10.4561ZM10.6504 18.2361C9.66774 18.1247 8.74125 17.9738 7.88555 17.7846C8.15039 16.9155 8.47676 16.0125 8.85797 15.0941C9.12924 15.6264 9.41279 16.1522 9.7084 16.671C10.0124 17.2043 10.3271 17.7267 10.6504 18.2361ZM15.0498 21.9302C14.4423 21.2644 13.8364 20.5279 13.2448 19.7357C13.8192 19.7586 14.4048 19.7703 15 19.7703C15.6115 19.7703 16.2159 19.7563 16.8109 19.7294C16.2267 20.5359 15.6369 21.2735 15.0498 21.9302ZM21.1668 15.0472C21.5678 15.9757 21.9057 16.874 22.1741 17.7281C21.3043 17.9298 20.3652 18.0922 19.3757 18.2128C19.6927 17.7021 19.9998 17.1851 20.2966 16.6621C20.5984 16.1304 20.8885 15.592 21.1668 15.0472ZM19.1865 16.0116C18.7321 16.8135 18.2521 17.6003 17.7473 18.3705C16.833 18.4363 15.9166 18.469 15 18.4685C14.0664 18.4685 13.1583 18.439 12.2838 18.3813C11.7659 17.6129 11.2767 16.8248 10.8175 16.0187H10.8176C10.3605 15.2169 9.93347 14.3978 9.53754 13.5631C9.93246 12.7282 10.3581 11.9087 10.8137 11.1063L10.8136 11.1065C11.269 10.3039 11.7542 9.51914 12.2682 8.75396C13.1604 8.68539 14.0753 8.64968 14.9999 8.64968H15C15.9288 8.64968 16.8449 8.68575 17.7368 8.7548C18.2456 9.51883 18.7278 10.3009 19.1823 11.0994C19.6394 11.9001 20.0707 12.7156 20.4756 13.5447C20.0749 14.3823 19.6449 15.2051 19.1865 16.0116ZM21.8303 1.47301C22.8348 2.06158 23.2255 4.43503 22.5943 7.54753C22.554 7.74611 22.5088 7.94837 22.4596 8.15349C21.2148 7.86158 19.8633 7.64456 18.4482 7.50968C17.6239 6.31718 16.7698 5.23301 15.9123 4.29444C16.137 4.07438 16.3671 3.86003 16.6023 3.65158C18.8171 1.69361 20.8871 0.920512 21.8303 1.47301ZM15 10.8106C16.4795 10.8106 17.6789 12.0291 17.6789 13.5321C17.6789 15.035 16.4795 16.2535 15 16.2535C13.5205 16.2535 12.3211 15.035 12.3211 13.5321C12.3211 12.0291 13.5205 10.8106 15 10.8106Z" fill="#00D8FF"/>
</g>
<defs>
<clipPath id="clip0_7_35">
<rect width="30" height="27.1428" fill="white"/>
</clipPath>
</defs>
</svg>
