<svg width="28" height="28" viewBox="0 0 28 28" fill="none" xmlns="http://www.w3.org/2000/svg">
<path d="M0 14V28H28V0H0V14Z" fill="#007ACC"/>
<path d="M6.19172 14.093L6.18286 15.2395H9.82724V25.5952H12.4052V15.2395H16.0496V14.1152C16.0496 13.4928 16.0362 12.9729 16.0185 12.9595C16.0052 12.9418 13.7874 12.9328 11.0985 12.9373L6.20517 12.9507L6.19183 14.0929L6.19172 14.093Z" fill="white"/>
<path d="M22.5934 12.9181C23.3044 13.0959 23.8467 13.4114 24.3445 13.9269C24.6023 14.2026 24.9844 14.7048 25.0156 14.8248C25.0243 14.8604 23.8067 15.6781 23.0689 16.1359C23.0422 16.1537 22.9355 16.0381 22.8155 15.8603C22.4555 15.3359 22.0778 15.1092 21.4999 15.0693C20.6512 15.0114 20.1044 15.4559 20.1089 16.198C20.1089 16.4159 20.14 16.5447 20.2289 16.7226C20.4156 17.1092 20.7622 17.3403 21.8511 17.8114C23.8555 18.6737 24.7133 19.2426 25.2467 20.0514C25.8422 20.9537 25.9756 22.3937 25.5711 23.4648C25.1267 24.6292 24.0245 25.4204 22.4733 25.6826C21.9933 25.767 20.8556 25.7537 20.34 25.6604C19.2156 25.4603 18.1489 24.9048 17.4911 24.1759C17.2333 23.8914 16.7311 23.1492 16.7623 23.0959C16.7756 23.0781 16.8911 23.007 17.0199 22.9315C17.1444 22.8604 17.6156 22.5891 18.06 22.3314L18.8644 21.8647L19.0333 22.1137C19.2689 22.4736 19.7844 22.967 20.0956 23.1314C20.9888 23.6026 22.2156 23.5359 22.82 22.9936C23.0778 22.7581 23.1844 22.5136 23.1844 22.1536C23.1844 21.8292 23.1444 21.687 22.9755 21.4426C22.7579 21.1315 22.3134 20.8692 21.0511 20.3226C19.6067 19.7003 18.9844 19.3137 18.4156 18.7003C18.0867 18.3448 17.7755 17.7759 17.6467 17.3003C17.54 16.9048 17.5132 15.9136 17.5978 15.5136C17.8956 14.118 18.9489 13.1448 20.4689 12.8558C20.9621 12.7625 22.1088 12.7981 22.5934 12.9182V12.9181Z" fill="white"/>
</svg>
